<?xml version="1.0" encoding="utf-8"?>
<!-- Generator: Adobe Illustrator 14.0.0, SVG Export Plug-In . SVG Version: 6.00 Build 43363)  -->
<!DOCTYPE svg PUBLIC "-//W3C//DTD SVG 1.1//EN" "http://www.w3.org/Graphics/SVG/1.1/DTD/svg11.dtd">
<svg version="1.1" id="Ebene_1" xmlns="http://www.w3.org/2000/svg" xmlns:xlink="http://www.w3.org/1999/xlink" x="0px" y="0px"
	 width="800px" height="600px" viewBox="0 0 800 600" enable-background="new 0 0 800 600" xml:space="preserve">
<g>
	<g>
		<g>
			<line x1="50.121" y1="133.559" x2="82.618" y2="133.559"/>
			<g>
				<path d="M50.121,137.059c10.832,0,21.665,0,32.497,0c4.514,0,4.514-7,0-7c-10.832,0-21.665,0-32.497,0
					C45.607,130.059,45.607,137.059,50.121,137.059L50.121,137.059z"/>
			</g>
		</g>
		<g>
			<line x1="64.957" y1="116.456" x2="50.121" y2="133.559"/>
			<g>
				<path d="M62.481,113.98c-4.945,5.701-9.89,11.402-14.835,17.103c-2.942,3.393,1.987,8.366,4.95,4.95
					c4.945-5.701,9.89-11.402,14.835-17.103C70.374,115.538,65.445,110.565,62.481,113.98L62.481,113.98z"/>
			</g>
		</g>
		<g>
			<line x1="50.121" y1="133.559" x2="64.957" y2="150.662"/>
			<g>
				<path d="M47.646,136.034c4.945,5.701,9.891,11.402,14.835,17.104c2.963,3.416,7.893-1.558,4.95-4.95
					c-4.945-5.701-9.891-11.402-14.835-17.104C49.633,127.668,44.704,132.641,47.646,136.034L47.646,136.034z"/>
			</g>
		</g>
	</g>
	<g>
		<g>
			<line x1="99.293" y1="88.431" x2="99.293" y2="123.065"/>
			<g>
				<path d="M95.793,88.431c0,11.545,0,23.089,0,34.634c0,4.514,7,4.514,7,0c0-11.545,0-23.089,0-34.634
					C102.793,83.917,95.793,83.917,95.793,88.431L95.793,88.431z"/>
			</g>
		</g>
		<g>
			<line x1="116.183" y1="104.242" x2="99.293" y2="88.431"/>
			<g>
				<path d="M118.658,101.767c-5.63-5.271-11.26-10.541-16.89-15.812c-3.292-3.081-8.251,1.859-4.95,4.95
					c5.63,5.271,11.26,10.541,16.89,15.812C117,109.798,121.959,104.858,118.658,101.767L118.658,101.767z"/>
			</g>
		</g>
		<g>
			<line x1="99.293" y1="88.431" x2="82.404" y2="104.242"/>
			<g>
				<path d="M96.818,85.956c-5.63,5.271-11.26,10.541-16.89,15.812c-3.301,3.091,1.659,8.031,4.95,4.95
					c5.63-5.271,11.26-10.541,16.89-15.812C105.07,87.815,100.11,82.875,96.818,85.956L96.818,85.956z"/>
			</g>
		</g>
	</g>
	<g>
		<g>
			<line x1="99.293" y1="185.933" x2="99.293" y2="151.726"/>
			<g>
				<path d="M102.793,185.933c0-11.402,0-22.805,0-34.207c0-4.514-7-4.514-7,0c0,11.402,0,22.805,0,34.207
					C95.793,190.447,102.793,190.447,102.793,185.933L102.793,185.933z"/>
			</g>
		</g>
		<g>
			<line x1="82.832" y1="170.317" x2="99.293" y2="185.933"/>
			<g>
				<path d="M80.356,172.792c5.487,5.205,10.975,10.411,16.462,15.616c3.272,3.104,8.23-1.838,4.95-4.95
					c-5.487-5.205-10.975-10.411-16.462-15.616C82.034,164.738,77.076,169.68,80.356,172.792L80.356,172.792z"/>
			</g>
		</g>
		<g>
			<line x1="99.293" y1="185.933" x2="115.755" y2="170.317"/>
			<g>
				<path d="M101.769,188.408c5.487-5.206,10.975-10.411,16.462-15.616c3.28-3.112-1.678-8.054-4.95-4.95
					c-5.487,5.206-10.975,10.411-16.462,15.616C93.538,186.57,98.496,191.512,101.769,188.408L101.769,188.408z"/>
			</g>
		</g>
	</g>
	<g>
		<g>
			<line x1="150.069" y1="133.559" x2="117.145" y2="133.559"/>
			<g>
				<path d="M150.069,130.059c-10.975,0-21.95,0-32.924,0c-4.514,0-4.514,7,0,7c10.975,0,21.95,0,32.924,0
					C154.583,137.059,154.583,130.059,150.069,130.059L150.069,130.059z"/>
			</g>
		</g>
		<g>
			<line x1="135.039" y1="151.304" x2="150.069" y2="133.559"/>
			<g>
				<path d="M137.514,153.779c5.01-5.915,10.021-11.83,15.031-17.745c2.898-3.422-2.028-8.399-4.95-4.95
					c-5.01,5.915-10.021,11.83-15.031,17.745C129.666,152.25,134.592,157.228,137.514,153.779L137.514,153.779z"/>
			</g>
		</g>
		<g>
			<line x1="150.069" y1="133.559" x2="135.039" y2="115.814"/>
			<g>
				<path d="M152.544,131.083c-5.01-5.915-10.021-11.83-15.031-17.745c-2.922-3.449-7.849,1.528-4.95,4.95
					c5.01,5.915,10.021,11.83,15.031,17.745C150.516,139.483,155.443,134.505,152.544,131.083L152.544,131.083z"/>
			</g>
		</g>
	</g>
	<rect x="41.676" y="78.725" fill="none" stroke="#000000" width="114.593" height="113.738"/>
</g>
<g>
	<g>
		<g>
			<line x1="196.249" y1="138.587" x2="228.745" y2="138.587"/>
			<g>
				<path d="M196.249,142.087c10.832,0,21.665,0,32.497,0c4.514,0,4.514-7,0-7c-10.832,0-21.665,0-32.497,0
					C191.734,135.087,191.734,142.087,196.249,142.087L196.249,142.087z"/>
			</g>
		</g>
		<g>
			<line x1="211.083" y1="121.484" x2="196.249" y2="138.587"/>
			<g>
				<path d="M208.608,119.009c-4.945,5.701-9.89,11.402-14.835,17.104c-2.942,3.393,1.987,8.366,4.95,4.95
					c4.945-5.701,9.89-11.402,14.835-17.104C216.501,120.566,211.571,115.593,208.608,119.009L208.608,119.009z"/>
			</g>
		</g>
		<g>
			<line x1="196.249" y1="138.587" x2="211.083" y2="155.691"/>
			<g>
				<path d="M193.773,141.063c4.945,5.701,9.89,11.402,14.835,17.104c2.963,3.416,7.893-1.557,4.95-4.95
					c-4.945-5.701-9.89-11.402-14.835-17.104C195.761,132.697,190.831,137.669,193.773,141.063L193.773,141.063z"/>
			</g>
		</g>
	</g>
	<g>
		<g>
			<line x1="259.531" y1="119.783" x2="259.531" y2="154.417"/>
			<g>
				<path d="M256.031,119.783c0,11.545,0,23.089,0,34.634c0,4.514,7,4.514,7,0c0-11.545,0-23.089,0-34.634
					C263.031,115.269,256.031,115.269,256.031,119.783L256.031,119.783z"/>
			</g>
		</g>
		<g>
			<line x1="276.421" y1="135.594" x2="259.531" y2="119.783"/>
			<g>
				<path d="M278.896,133.119c-5.63-5.271-11.26-10.541-16.89-15.812c-3.292-3.081-8.251,1.859-4.95,4.95
					c5.63,5.271,11.26,10.541,16.89,15.812C277.237,141.15,282.197,136.21,278.896,133.119L278.896,133.119z"/>
			</g>
		</g>
		<g>
			<line x1="259.531" y1="119.783" x2="242.642" y2="135.594"/>
			<g>
				<path d="M257.056,117.308c-5.63,5.271-11.26,10.541-16.89,15.812c-3.301,3.091,1.659,8.031,4.95,4.95
					c5.63-5.271,11.26-10.541,16.89-15.812C265.308,119.167,260.348,114.227,257.056,117.308L257.056,117.308z"/>
			</g>
		</g>
	</g>
	<g>
		<g>
			<line x1="303.145" y1="155.691" x2="303.145" y2="121.484"/>
			<g>
				<path d="M306.645,155.691c0-11.402,0-22.805,0-34.207c0-4.514-7-4.514-7,0c0,11.402,0,22.805,0,34.207
					C299.645,160.205,306.645,160.205,306.645,155.691L306.645,155.691z"/>
			</g>
		</g>
		<g>
			<line x1="286.683" y1="140.075" x2="303.145" y2="155.691"/>
			<g>
				<path d="M284.208,142.55c5.487,5.205,10.975,10.411,16.462,15.616c3.272,3.104,8.231-1.838,4.95-4.95
					c-5.487-5.205-10.975-10.411-16.462-15.616C285.885,134.496,280.927,139.438,284.208,142.55L284.208,142.55z"/>
			</g>
		</g>
		<g>
			<line x1="303.145" y1="155.691" x2="319.606" y2="140.075"/>
			<g>
				<path d="M305.62,158.166c5.487-5.206,10.974-10.411,16.461-15.616c3.281-3.112-1.677-8.054-4.949-4.95
					c-5.487,5.206-10.975,10.411-16.462,15.616C297.389,156.328,302.347,161.27,305.62,158.166L305.62,158.166z"/>
			</g>
		</g>
	</g>
	<g>
		<g>
			<line x1="362.151" y1="137.1" x2="329.228" y2="137.1"/>
			<g>
				<path d="M362.151,133.6c-10.975,0-21.949,0-32.924,0c-4.514,0-4.514,7,0,7c10.975,0,21.949,0,32.924,0
					C366.665,140.6,366.665,133.6,362.151,133.6L362.151,133.6z"/>
			</g>
		</g>
		<g>
			<line x1="347.121" y1="154.845" x2="362.151" y2="137.1"/>
			<g>
				<path d="M349.596,157.32c5.011-5.915,10.021-11.83,15.03-17.745c2.898-3.422-2.027-8.399-4.949-4.95
					c-5.011,5.915-10.021,11.83-15.03,17.745C341.748,155.792,346.674,160.769,349.596,157.32L349.596,157.32z"/>
			</g>
		</g>
		<g>
			<line x1="362.151" y1="137.1" x2="347.121" y2="119.355"/>
			<g>
				<path d="M364.626,134.625c-5.01-5.915-10.02-11.83-15.03-17.745c-2.922-3.449-7.848,1.528-4.949,4.95
					c5.01,5.915,10.02,11.83,15.03,17.745C362.599,143.024,367.524,138.047,364.626,134.625L364.626,134.625z"/>
			</g>
		</g>
	</g>
	<rect x="180.855" y="111.444" fill="none" stroke="#000000" width="186.427" height="50.455"/>
</g>
<g>
	<g>
		<g>
			<line x1="578.319" y1="136.672" x2="610.815" y2="136.672"/>
			<g>
				<path d="M578.319,140.172c10.832,0,21.664,0,32.496,0c4.514,0,4.514-7,0-7c-10.832,0-21.664,0-32.496,0
					C573.806,133.172,573.806,140.172,578.319,140.172L578.319,140.172z"/>
			</g>
		</g>
		<g>
			<line x1="593.154" y1="119.568" x2="578.319" y2="136.672"/>
			<g>
				<path d="M590.68,117.093c-4.945,5.701-9.891,11.402-14.835,17.104c-2.943,3.393,1.986,8.366,4.949,4.95
					c4.945-5.701,9.891-11.402,14.835-17.104C598.572,118.65,593.643,113.678,590.68,117.093L590.68,117.093z"/>
			</g>
		</g>
		<g>
			<line x1="578.319" y1="136.672" x2="593.154" y2="153.775"/>
			<g>
				<path d="M575.845,139.147c4.944,5.701,9.89,11.402,14.835,17.103c2.963,3.416,7.893-1.558,4.949-4.95
					c-4.944-5.701-9.89-11.402-14.835-17.103C577.831,130.781,572.901,135.754,575.845,139.147L575.845,139.147z"/>
			</g>
		</g>
	</g>
	<g>
		<g>
			<line x1="685.216" y1="119.354" x2="685.216" y2="153.989"/>
			<g>
				<path d="M681.716,119.354c0,11.545,0,23.089,0,34.634c0,4.514,7,4.514,7,0c0-11.545,0-23.089,0-34.634
					C688.716,114.84,681.716,114.84,681.716,119.354L681.716,119.354z"/>
			</g>
		</g>
		<g>
			<line x1="702.105" y1="135.166" x2="685.216" y2="119.354"/>
			<g>
				<path d="M704.58,132.691c-5.63-5.271-11.26-10.541-16.89-15.812c-3.291-3.081-8.251,1.859-4.949,4.95
					c5.63,5.271,11.26,10.541,16.89,15.812C702.922,140.722,707.882,135.782,704.58,132.691L704.58,132.691z"/>
			</g>
		</g>
		<g>
			<line x1="685.216" y1="119.354" x2="668.326" y2="135.166"/>
			<g>
				<path d="M682.741,116.879c-5.63,5.271-11.26,10.541-16.89,15.812c-3.302,3.091,1.658,8.031,4.949,4.95
					c5.63-5.271,11.26-10.541,16.89-15.812C690.992,118.739,686.032,113.799,682.741,116.879L682.741,116.879z"/>
			</g>
		</g>
	</g>
	<g>
		<g>
			<line x1="640.877" y1="152.288" x2="640.877" y2="118.081"/>
			<g>
				<path d="M644.377,152.288c0-11.402,0-22.804,0-34.207c0-4.514-7-4.514-7,0c0,11.402,0,22.804,0,34.207
					C637.377,156.802,644.377,156.802,644.377,152.288L644.377,152.288z"/>
			</g>
		</g>
		<g>
			<line x1="624.415" y1="136.672" x2="640.877" y2="152.288"/>
			<g>
				<path d="M621.94,139.147c5.487,5.205,10.975,10.41,16.462,15.616c3.272,3.104,8.23-1.838,4.949-4.95
					c-5.487-5.205-10.975-10.41-16.462-15.616C623.617,131.093,618.659,136.035,621.94,139.147L621.94,139.147z"/>
			</g>
		</g>
		<g>
			<line x1="640.877" y1="152.288" x2="657.339" y2="136.672"/>
			<g>
				<path d="M643.352,154.763c5.487-5.206,10.975-10.411,16.462-15.616c3.281-3.112-1.677-8.054-4.949-4.95
					c-5.487,5.206-10.975,10.411-16.462,15.616C635.121,152.925,640.079,157.867,643.352,154.763L643.352,154.763z"/>
			</g>
		</g>
	</g>
	<g>
		<g>
			<line x1="744.223" y1="135.185" x2="711.298" y2="135.185"/>
			<g>
				<path d="M744.223,131.685c-10.975,0-21.95,0-32.925,0c-4.514,0-4.514,7,0,7c10.975,0,21.95,0,32.925,0
					C748.736,138.685,748.736,131.685,744.223,131.685L744.223,131.685z"/>
			</g>
		</g>
		<g>
			<line x1="729.191" y1="152.929" x2="744.223" y2="135.185"/>
			<g>
				<path d="M731.666,155.404c5.011-5.915,10.021-11.83,15.031-17.745c2.898-3.422-2.027-8.399-4.949-4.95
					c-5.011,5.915-10.021,11.83-15.031,17.745C723.818,153.876,728.744,158.854,731.666,155.404L731.666,155.404z"/>
			</g>
		</g>
		<g>
			<line x1="744.223" y1="135.185" x2="729.191" y2="117.439"/>
			<g>
				<path d="M746.697,132.709c-5.01-5.915-10.021-11.83-15.031-17.745c-2.922-3.449-7.848,1.528-4.949,4.95
					c5.01,5.915,10.021,11.83,15.031,17.745C744.67,141.109,749.596,136.131,746.697,132.709L746.697,132.709z"/>
			</g>
		</g>
	</g>
	<rect x="571.691" y="111.564" fill="none" stroke="#000000" width="179.586" height="50.455"/>
</g>
<g>
	<g>
		<g>
			<line x1="405.388" y1="156.702" x2="437.884" y2="156.702"/>
			<g>
				<path d="M405.388,160.202c10.832,0,21.664,0,32.496,0c4.514,0,4.514-7,0-7c-10.832,0-21.664,0-32.496,0
					C400.874,153.202,400.874,160.202,405.388,160.202L405.388,160.202z"/>
			</g>
		</g>
		<g>
			<line x1="420.223" y1="139.598" x2="405.388" y2="156.702"/>
			<g>
				<path d="M417.748,137.123c-4.945,5.701-9.891,11.402-14.835,17.104c-2.943,3.393,1.986,8.366,4.949,4.95
					c4.945-5.701,9.891-11.402,14.835-17.104C425.641,138.68,420.711,133.708,417.748,137.123L417.748,137.123z"/>
			</g>
		</g>
		<g>
			<line x1="405.388" y1="156.702" x2="420.223" y2="173.805"/>
			<g>
				<path d="M402.913,159.177c4.944,5.701,9.89,11.402,14.835,17.103c2.963,3.416,7.893-1.557,4.949-4.95
					c-4.944-5.701-9.89-11.402-14.835-17.103C404.899,150.811,399.97,155.784,402.913,159.177L402.913,159.177z"/>
			</g>
		</g>
	</g>
	<g>
		<g>
			<line x1="466.383" y1="95.771" x2="466.383" y2="130.406"/>
			<g>
				<path d="M462.883,95.771c0,11.545,0,23.089,0,34.634c0,4.514,7,4.514,7,0c0-11.545,0-23.089,0-34.634
					C469.883,91.257,462.883,91.257,462.883,95.771L462.883,95.771z"/>
			</g>
		</g>
		<g>
			<line x1="483.272" y1="111.583" x2="466.383" y2="95.771"/>
			<g>
				<path d="M485.747,109.108c-5.63-5.271-11.26-10.541-16.89-15.812c-3.291-3.081-8.251,1.859-4.949,4.95
					c5.63,5.271,11.26,10.541,16.89,15.812C484.089,117.139,489.049,112.199,485.747,109.108L485.747,109.108z"/>
			</g>
		</g>
		<g>
			<line x1="466.383" y1="95.771" x2="449.493" y2="111.583"/>
			<g>
				<path d="M463.908,93.296c-5.63,5.271-11.26,10.541-16.89,15.812c-3.302,3.091,1.658,8.031,4.949,4.95
					c5.63-5.271,11.26-10.541,16.89-15.812C472.159,95.156,467.199,90.216,463.908,93.296L463.908,93.296z"/>
			</g>
		</g>
	</g>
	<g>
		<g>
			<line x1="466.383" y1="175.293" x2="466.383" y2="141.086"/>
			<g>
				<path d="M469.883,175.293c0-11.402,0-22.804,0-34.207c0-4.514-7-4.514-7,0c0,11.402,0,22.804,0,34.207
					C462.883,179.807,469.883,179.807,469.883,175.293L469.883,175.293z"/>
			</g>
		</g>
		<g>
			<line x1="449.921" y1="159.677" x2="466.383" y2="175.293"/>
			<g>
				<path d="M447.446,162.152c5.487,5.205,10.975,10.41,16.462,15.616c3.272,3.104,8.23-1.838,4.949-4.95
					c-5.487-5.205-10.975-10.41-16.462-15.616C449.123,154.098,444.165,159.04,447.446,162.152L447.446,162.152z"/>
			</g>
		</g>
		<g>
			<line x1="466.383" y1="175.293" x2="482.846" y2="159.677"/>
			<g>
				<path d="M468.857,177.768c5.488-5.206,10.976-10.411,16.463-15.616c3.281-3.112-1.677-8.054-4.949-4.95
					c-5.488,5.206-10.976,10.411-16.463,15.616C460.627,175.93,465.585,180.872,468.857,177.768L468.857,177.768z"/>
			</g>
		</g>
	</g>
	<g>
		<g>
			<line x1="525.39" y1="156.703" x2="492.466" y2="156.703"/>
			<g>
				<path d="M525.39,153.203c-10.975,0-21.949,0-32.924,0c-4.514,0-4.514,7,0,7c10.975,0,21.949,0,32.924,0
					C529.903,160.203,529.903,153.203,525.39,153.203L525.39,153.203z"/>
			</g>
		</g>
		<g>
			<line x1="510.359" y1="174.448" x2="525.39" y2="156.703"/>
			<g>
				<path d="M512.834,176.923c5.011-5.915,10.021-11.83,15.03-17.745c2.898-3.422-2.027-8.399-4.949-4.95
					c-5.011,5.915-10.021,11.83-15.03,17.745C504.986,175.395,509.913,180.372,512.834,176.923L512.834,176.923z"/>
			</g>
		</g>
		<g>
			<line x1="525.39" y1="156.703" x2="510.359" y2="138.958"/>
			<g>
				<path d="M527.864,154.228c-5.01-5.915-10.02-11.83-15.03-17.745c-2.921-3.449-7.848,1.528-4.949,4.95
					c5.01,5.915,10.02,11.83,15.03,17.745C525.837,162.627,530.763,157.649,527.864,154.228L527.864,154.228z"/>
			</g>
		</g>
	</g>
	<rect x="442.438" y="88.832" fill="none" stroke="#000000" width="44.362" height="46.179"/>
	<rect x="442.438" y="135.011" fill="none" stroke="#000000" width="44.362" height="47.346"/>
	<rect x="486.801" y="135.011" fill="none" stroke="#000000" width="43.399" height="47.346"/>
	<rect x="399.68" y="135.011" fill="none" stroke="#000000" width="42.759" height="47.346"/>
</g>
<g>
	<g>
		<rect x="675.462" y="313.97" width="56.548" height="54.187"/>
		<g>
			<path d="M732.064,360.654c-18.85,0-37.699,0-56.549,0c2.482,2.519,4.965,5.037,7.448,7.556c0-18.062,0-36.124,0-54.187
				c-2.519,2.482-5.038,4.966-7.556,7.448c18.85,0,37.699,0,56.548,0c-2.482-2.519-4.965-5.037-7.447-7.556
				c0,18.062,0,36.124,0,54.187c0,9.686,15.003,9.771,15.003,0.107c0-18.062,0-36.124,0-54.187c0-4.064-3.342-7.556-7.447-7.556
				c-18.85,0-37.699,0-56.549,0c-4.064,0-7.556,3.342-7.556,7.448c0,18.062,0,36.124,0,54.187c0,4.064,3.342,7.556,7.448,7.556
				c18.85,0,37.699,0,56.548,0C741.643,375.658,741.728,360.654,732.064,360.654z"/>
		</g>
	</g>
	<g>
		<circle cx="732.01" cy="341.063" r="27.093"/>
		<g>
			<path d="M751.602,341.01c-0.275,10.892-8.61,19.368-19.537,19.645c-10.893,0.275-19.38-9.021-19.646-19.537
				c-0.276-10.892,9.021-19.38,19.537-19.646C742.849,321.196,751.336,330.494,751.602,341.01
				c0.245,9.666,15.248,9.775,15.004,0.107c-0.484-19.149-15.353-34.164-34.541-34.649c-19.146-0.483-34.183,16.081-34.649,34.542
				c-0.483,19.146,16.081,34.182,34.541,34.648c19.146,0.483,34.183-16.08,34.649-34.541
				C766.851,331.424,751.846,331.362,751.602,341.01z"/>
		</g>
	</g>
	<g>
		<g id="XMLID_1_">
			<g>
				<polygon fill="#FFFFFF" points="718.883,341.063 697.015,362.932 697.015,319.195 				"/>
			</g>
			<g>
				<line fill="none" stroke="#000000" x1="697.015" y1="319.195" x2="697.015" y2="362.932"/>
				<line fill="none" stroke="#000000" x1="697.015" y1="362.932" x2="718.883" y2="341.063"/>
				<line fill="none" stroke="#000000" x1="697.015" y1="319.195" x2="718.883" y2="341.063"/>
			</g>
		</g>
	</g>
	<g>
		<g id="XMLID_2_">
			<g>
				<polygon fill="#FFFFFF" points="740.726,341.063 718.857,362.932 718.857,319.195 				"/>
			</g>
			<g>
				<line fill="none" stroke="#000000" x1="718.857" y1="319.195" x2="718.857" y2="362.932"/>
				<line fill="none" stroke="#000000" x1="718.857" y1="362.932" x2="740.726" y2="341.063"/>
				<line fill="none" stroke="#000000" x1="718.857" y1="319.195" x2="740.726" y2="341.063"/>
			</g>
		</g>
	</g>
</g>
<g>
	<g>
		<rect x="476.586" y="313.965" width="56.549" height="54.187"/>
		<g>
			<path d="M476.531,321.467c18.85,0,37.699,0,56.549,0c-2.482-2.519-4.965-5.037-7.447-7.556c0,18.062,0,36.124,0,54.187
				c2.52-2.482,5.037-4.966,7.557-7.448c-18.85,0-37.699,0-56.549,0c2.482,2.519,4.965,5.037,7.447,7.556
				c0-18.062,0-36.124,0-54.187c0-9.686-15.004-9.771-15.004-0.107c0,18.062,0,36.124,0,54.187c0,4.064,3.342,7.556,7.447,7.556
				c18.85,0,37.699,0,56.549,0c4.065,0,7.557-3.342,7.557-7.448c0-18.062,0-36.124,0-54.187c0-4.064-3.342-7.556-7.447-7.556
				c-18.85,0-37.699,0-56.549,0C466.953,306.463,466.868,321.467,476.531,321.467z"/>
		</g>
	</g>
	<g>
		<circle cx="476.585" cy="341.058" r="27.093"/>
		<g>
			<path d="M456.994,341.111c0.275-10.892,8.611-19.368,19.537-19.645c10.893-0.275,19.38,9.021,19.646,19.537
				c0.275,10.892-9.022,19.38-19.537,19.646C465.748,360.925,457.26,351.627,456.994,341.111
				c-0.244-9.666-15.248-9.775-15.003-0.107c0.483,19.149,15.353,34.164,34.54,34.649c19.146,0.483,34.183-16.081,34.648-34.542
				c0.484-19.146-16.08-34.182-34.539-34.648c-19.146-0.483-34.183,16.08-34.649,34.541
				C441.746,350.697,456.75,350.759,456.994,341.111z"/>
		</g>
	</g>
	<g>
		<g id="XMLID_4_">
			<g>
				<polygon fill="#FFFFFF" points="489.715,341.053 511.583,319.185 511.583,362.921 				"/>
			</g>
			<g>
				<line fill="none" stroke="#000000" x1="511.583" y1="362.921" x2="511.583" y2="319.185"/>
				<line fill="none" stroke="#000000" x1="511.583" y1="319.185" x2="489.715" y2="341.053"/>
				<line fill="none" stroke="#000000" x1="511.583" y1="362.921" x2="489.715" y2="341.053"/>
			</g>
		</g>
	</g>
	<g>
		<g id="XMLID_3_">
			<g>
				<polygon fill="#FFFFFF" points="467.872,341.053 489.74,319.185 489.74,362.921 				"/>
			</g>
			<g>
				<line fill="none" stroke="#000000" x1="489.74" y1="362.921" x2="489.74" y2="319.185"/>
				<line fill="none" stroke="#000000" x1="489.74" y1="319.185" x2="467.872" y2="341.053"/>
				<line fill="none" stroke="#000000" x1="489.74" y1="362.921" x2="467.872" y2="341.053"/>
			</g>
		</g>
	</g>
</g>
<g>
	<g>
		<rect x="564.243" y="313.965" width="56.549" height="54.187"/>
		<g>
			<path d="M620.846,360.649c-18.85,0-37.699,0-56.549,0c2.482,2.519,4.965,5.037,7.447,7.556c0-18.062,0-36.124,0-54.187
				c-2.518,2.482-5.037,4.966-7.555,7.448c18.85,0,37.699,0,56.549,0c-2.482-2.519-4.965-5.037-7.448-7.556
				c0,18.062,0,36.124,0,54.187c0,9.686,15.004,9.771,15.004,0.107c0-18.062,0-36.124,0-54.187c0-4.064-3.342-7.556-7.448-7.556
				c-18.85,0-37.699,0-56.549,0c-4.064,0-7.555,3.342-7.555,7.448c0,18.062,0,36.124,0,54.187c0,4.064,3.341,7.556,7.447,7.556
				c18.85,0,37.699,0,56.549,0C630.424,375.653,630.51,360.649,620.846,360.649z"/>
		</g>
	</g>
	<g>
		<circle cx="620.792" cy="341.058" r="27.093"/>
		<g>
			<path d="M640.383,341.004c-0.275,10.892-8.609,19.369-19.537,19.646c-10.893,0.275-19.379-9.022-19.646-19.538
				c-0.275-10.892,9.022-19.379,19.538-19.645C631.629,321.191,640.117,330.488,640.383,341.004
				c0.244,9.666,15.248,9.775,15.004,0.107c-0.484-19.148-15.353-34.163-34.541-34.648c-19.146-0.483-34.182,16.08-34.648,34.541
				c-0.484,19.146,16.08,34.183,34.541,34.649c19.146,0.483,34.182-16.081,34.648-34.542
				C655.631,331.418,640.627,331.356,640.383,341.004z"/>
		</g>
	</g>
	<g>
		<g id="XMLID_6_">
			<g>
				<polygon fill="#FFFFFF" points="618.5,341.063 596.632,362.931 596.632,319.195 				"/>
			</g>
			<g>
				<line fill="none" stroke="#000000" x1="596.632" y1="319.195" x2="596.632" y2="362.931"/>
				<line fill="none" stroke="#000000" x1="596.632" y1="362.931" x2="618.5" y2="341.063"/>
				<line fill="none" stroke="#000000" x1="596.632" y1="319.195" x2="618.5" y2="341.063"/>
			</g>
		</g>
	</g>
</g>
<g>
	<g>
		<rect x="167.054" y="313.965" width="56.549" height="54.186"/>
		<g>
			<path d="M223.656,360.648c-18.849,0-37.699,0-56.548,0c2.482,2.519,4.965,5.037,7.448,7.556c0-18.062,0-36.124,0-54.186
				c-2.519,2.482-5.038,4.965-7.556,7.447c18.85,0,37.699,0,56.549,0c-2.482-2.519-4.966-5.037-7.448-7.556
				c0,18.063,0,36.124,0,54.187c0,9.686,15.004,9.771,15.004,0.107c0-18.062,0-36.124,0-54.186c0-4.065-3.342-7.556-7.448-7.556
				c-18.849,0-37.699,0-56.548,0c-4.065,0-7.556,3.342-7.556,7.447c0,18.063,0,36.124,0,54.187c0,4.064,3.342,7.556,7.448,7.556
				c18.85,0,37.699,0,56.549,0C233.234,375.652,233.32,360.648,223.656,360.648z"/>
		</g>
	</g>
	<g>
		<circle cx="223.602" cy="341.058" r="27.093"/>
		<g>
			<path d="M243.193,341.004c-0.275,10.891-8.61,19.368-19.537,19.645c-10.892,0.275-19.38-9.021-19.646-19.537
				c-0.276-10.893,9.022-19.379,19.538-19.646C234.44,321.19,242.928,330.488,243.193,341.004
				c0.245,9.666,15.248,9.775,15.004,0.107c-0.484-19.148-15.353-34.164-34.541-34.648c-19.146-0.484-34.183,16.08-34.649,34.541
				c-0.484,19.146,16.081,34.182,34.542,34.648c19.146,0.483,34.182-16.08,34.648-34.541
				C258.442,331.418,243.438,331.355,243.193,341.004z"/>
		</g>
	</g>
	<g>
		<g id="XMLID_10_">
			<g>
				<polygon fill="#FFFFFF" points="210.475,341.061 188.607,362.929 188.607,319.192 				"/>
			</g>
			<g>
				<line fill="none" stroke="#000000" x1="188.607" y1="319.192" x2="188.607" y2="362.929"/>
				<line fill="none" stroke="#000000" x1="188.607" y1="362.929" x2="210.475" y2="341.061"/>
				<line fill="none" stroke="#000000" x1="188.607" y1="319.192" x2="210.475" y2="341.061"/>
			</g>
		</g>
	</g>
	<g>
		<g id="XMLID_9_">
			<g>
				<polygon fill="#FFFFFF" points="232.318,341.061 210.45,362.929 210.45,319.192 				"/>
			</g>
			<g>
				<line fill="none" stroke="#000000" x1="210.45" y1="319.192" x2="210.45" y2="362.929"/>
				<line fill="none" stroke="#000000" x1="210.45" y1="362.929" x2="232.318" y2="341.061"/>
				<line fill="none" stroke="#000000" x1="210.45" y1="319.192" x2="232.318" y2="341.061"/>
			</g>
		</g>
	</g>
</g>
<g>
	<g>
		<rect x="302.584" y="313.959" width="56.549" height="54.187"/>
		<g>
			<path d="M302.53,321.461c18.85,0,37.699,0,56.549,0c-2.482-2.52-4.966-5.037-7.448-7.557c0,18.063,0,36.125,0,54.188
				c2.519-2.482,5.037-4.966,7.556-7.448c-18.85,0-37.699,0-56.549,0c2.482,2.519,4.966,5.037,7.448,7.556
				c0-18.062,0-36.124,0-54.186c0-9.688-15.004-9.772-15.004-0.109c0,18.063,0,36.125,0,54.188c0,4.064,3.342,7.556,7.448,7.556
				c18.85,0,37.699,0,56.549,0c4.064,0,7.556-3.342,7.556-7.448c0-18.062,0-36.124,0-54.186c0-4.065-3.342-7.557-7.448-7.557
				c-18.85,0-37.699,0-56.549,0C292.952,306.457,292.866,321.461,302.53,321.461z"/>
		</g>
	</g>
	<g>
		<circle cx="302.584" cy="341.053" r="27.093"/>
		<g>
			<path d="M282.993,341.106c0.275-10.892,8.61-19.37,19.537-19.646c10.892-0.275,19.379,9.022,19.645,19.537
				c0.275,10.892-9.021,19.38-19.537,19.646C291.746,360.919,283.259,351.621,282.993,341.106
				c-0.245-9.667-15.248-9.775-15.004-0.108c0.484,19.149,15.353,34.164,34.541,34.649c19.146,0.483,34.182-16.081,34.648-34.541
				c0.483-19.146-16.08-34.183-34.541-34.649c-19.146-0.484-34.182,16.08-34.648,34.541
				C267.744,350.691,282.749,350.754,282.993,341.106z"/>
		</g>
	</g>
	<g>
		<g id="XMLID_8_">
			<g>
				<polygon fill="#FFFFFF" points="315.714,341.05 337.582,319.183 337.582,362.918 				"/>
			</g>
			<g>
				<line fill="none" stroke="#000000" x1="337.582" y1="362.918" x2="337.582" y2="319.183"/>
				<line fill="none" stroke="#000000" x1="337.582" y1="319.183" x2="315.714" y2="341.05"/>
				<line fill="none" stroke="#000000" x1="337.582" y1="362.918" x2="315.714" y2="341.05"/>
			</g>
		</g>
	</g>
	<g>
		<g id="XMLID_7_">
			<g>
				<polygon fill="#FFFFFF" points="293.871,341.05 315.739,319.183 315.739,362.918 				"/>
			</g>
			<g>
				<line fill="none" stroke="#000000" x1="315.739" y1="362.918" x2="315.739" y2="319.183"/>
				<line fill="none" stroke="#000000" x1="315.739" y1="319.183" x2="293.871" y2="341.05"/>
				<line fill="none" stroke="#000000" x1="315.739" y1="362.918" x2="293.871" y2="341.05"/>
			</g>
		</g>
	</g>
</g>
<g>
	<g>
		<rect x="55.835" y="313.959" width="56.549" height="54.187"/>
		<g>
			<path d="M112.438,360.644c-18.85,0-37.699,0-56.549,0c2.482,2.519,4.965,5.037,7.447,7.556c0-18.062,0-36.124,0-54.186
				c-2.519,2.482-5.037,4.965-7.556,7.447c18.85,0,37.699,0,56.549,0c-2.482-2.52-4.965-5.037-7.448-7.557
				c0,18.063,0,36.125,0,54.188c0,9.686,15.004,9.771,15.004,0.107c0-18.062,0-36.124,0-54.186c0-4.065-3.342-7.557-7.448-7.557
				c-18.85,0-37.699,0-56.549,0c-4.065,0-7.556,3.342-7.556,7.447c0,18.063,0,36.125,0,54.188c0,4.064,3.341,7.556,7.447,7.556
				c18.85,0,37.699,0,56.549,0C122.016,375.647,122.102,360.644,112.438,360.644z"/>
		</g>
	</g>
	<g>
		<circle cx="112.384" cy="341.053" r="27.093"/>
		<g>
			<path d="M131.975,340.998c-0.275,10.892-8.61,19.369-19.537,19.646c-10.892,0.275-19.38-9.022-19.646-19.537
				c-0.275-10.892,9.022-19.38,19.538-19.646C123.222,321.186,131.709,330.483,131.975,340.998
				c0.245,9.667,15.248,9.775,15.004,0.108c-0.484-19.149-15.353-34.164-34.541-34.649c-19.146-0.484-34.182,16.08-34.649,34.541
				c-0.484,19.146,16.08,34.183,34.541,34.649c19.146,0.483,34.182-16.081,34.649-34.541
				C147.223,331.412,132.219,331.351,131.975,340.998z"/>
		</g>
	</g>
	<g>
		<g id="XMLID_5_">
			<g>
				<polygon fill="#FFFFFF" points="110.093,341.061 88.225,362.928 88.225,319.192 				"/>
			</g>
			<g>
				<line fill="none" stroke="#000000" x1="88.225" y1="319.192" x2="88.225" y2="362.928"/>
				<line fill="none" stroke="#000000" x1="88.225" y1="362.928" x2="110.093" y2="341.061"/>
				<line fill="none" stroke="#000000" x1="88.225" y1="319.192" x2="110.093" y2="341.061"/>
			</g>
		</g>
	</g>
</g>
</svg>
